<?xml version="1.0" standalone="no"?>
<!DOCTYPE svg PUBLIC "-//W3C//DTD SVG 20010904//EN"
 "http://www.w3.org/TR/2001/REC-SVG-20010904/DTD/svg10.dtd">
<svg version="1.0" xmlns="http://www.w3.org/2000/svg"
 width="262.000000pt" height="262.000000pt" viewBox="0 0 262.000000 262.000000"
 preserveAspectRatio="xMidYMid meet">
<metadata>
Created by potrace 1.11, written by Peter Selinger 2001-2013
</metadata>
<g transform="translate(0.000000,262.000000) scale(0.100000,-0.100000)"
fill="#000000" stroke="none">
<path d="M110 2337 l0 -35 89 -4 c76 -3 95 -8 131 -32 80 -52 75 7 75 -966 0
-831 -1 -867 -19 -903 -11 -22 -37 -51 -59 -65 -35 -23 -53 -28 -129 -30 l-88
-4 0 -34 0 -34 573 0 c321 0 616 5 672 11 55 6 125 9 155 7 385 -22 595 39
793 231 71 68 144 161 191 242 27 47 26 52 -10 72 -7 4 -41 -30 -82 -82 -177
-221 -319 -308 -537 -328 l-70 -6 47 46 c139 135 204 332 164 501 -44 188
-183 322 -394 381 l-63 18 54 22 c368 149 428 613 111 858 l-54 42 28 8 c32 9
166 1 232 -15 78 -18 205 -85 264 -139 77 -70 143 -173 197 -309 37 -92 50
-116 68 -118 19 -3 21 1 21 45 0 26 -9 174 -20 328 -11 154 -20 290 -20 303 0
18 -6 22 -29 22 -25 0 -31 -6 -41 -35 -16 -49 -55 -92 -90 -100 -22 -5 -50 3
-110 30 -192 87 -309 111 -488 102 -64 -3 -143 -13 -176 -21 -51 -12 -68 -12
-135 1 -61 12 -193 16 -663 20 l-588 5 0 -35z m1043 -93 c26 -3 47 -9 47 -12
0 -4 -21 -20 -48 -37 -76 -48 -199 -172 -258 -261 -66 -99 -115 -204 -148
-315 l-25 -84 2 344 2 345 30 8 c80 23 258 28 398 12z m351 -193 c46 -62 63
-103 75 -182 21 -126 -22 -263 -109 -350 -79 -79 -168 -113 -331 -125 l-89 -7
0 39 c0 21 5 71 10 109 36 254 141 473 278 580 l56 44 37 -30 c21 -16 54 -52
73 -78z m-255 -807 c151 -35 282 -124 339 -232 71 -133 79 -269 23 -389 -29
-60 -97 -145 -133 -164 -43 -23 -203 101 -282 220 -84 126 -135 299 -151 505
l-6 89 72 -7 c40 -3 102 -13 138 -22z m-450 -450 c73 -156 200 -309 320 -389
33 -22 61 -43 61 -47 0 -20 -276 -4 -407 23 l-53 10 1 312 0 312 20 -70 c11
-38 37 -106 58 -151z"/>
</g>
</svg>
